<?xml version="1.0" encoding="UTF-8"?>
<svg version="1.1" xmlns="http://www.w3.org/2000/svg" width="256" height="127">
<path d="M0 0 C8.25 0 16.5 0 25 0 C25.33 12.87 25.66 25.74 26 39 C28.92080713 26.54010514 28.92080713 26.54010514 31.83374023 14.07836914 C32.20007147 12.52223068 32.56667071 10.96615528 32.93359375 9.41015625 C33.21740906 8.18709778 33.21740906 8.18709778 33.50695801 6.93933105 C34.8859282 1.1140718 34.8859282 1.1140718 36 0 C37.85369611 -0.08737645 39.71067541 -0.10698153 41.56640625 -0.09765625 C42.69111328 -0.09443359 43.81582031 -0.09121094 44.97460938 -0.08789062 C46.15861328 -0.07951172 47.34261719 -0.07113281 48.5625 -0.0625 C49.75037109 -0.05798828 50.93824219 -0.05347656 52.16210938 -0.04882812 C55.10812226 -0.03699675 58.05403681 -0.02051287 61 0 C59.0213925 9.20031891 56.9527436 18.35988377 54.5703125 27.46484375 C54.16365069 29.0422116 53.75740175 30.61968594 53.3515625 32.19726562 C52.73716539 34.58508104 52.1161972 36.97016353 51.47460938 39.35083008 C50.8395432 41.71721904 50.23395297 44.08964137 49.6328125 46.46484375 C49.43817413 47.16093246 49.24353577 47.85702118 49.04299927 48.57420349 C47.531075 54.73144117 48.5524484 59.90159634 50 66 C50.22763031 66.96826218 50.45526062 67.93652435 50.68978882 68.93412781 C51.44744149 72.05418779 52.23895341 75.16400617 53.0390625 78.2734375 C53.62511235 80.58460693 54.21104652 82.8958057 54.796875 85.20703125 C55.71441815 88.80863477 56.63389138 92.40973049 57.55566406 96.01025391 C58.4510293 99.51338225 59.33918117 103.01827967 60.2265625 106.5234375 C60.50464752 107.60056 60.78273254 108.6776825 61.06924438 109.78744507 C61.44996597 111.29524033 61.44996597 111.29524033 61.83837891 112.83349609 C62.0632901 113.7129892 62.28820129 114.5924823 62.51992798 115.49862671 C63 118 63 118 63 123 C54.75 123 46.5 123 38 123 C36.77863066 119.33589199 35.69255837 115.9951948 34.85498047 112.27978516 C34.65219482 111.38718994 34.44940918 110.49459473 34.24047852 109.57495117 C34.03479248 108.65560791 33.82910645 107.73626465 33.6171875 106.7890625 C33.42261963 105.93014404 33.22805176 105.07122559 33.02758789 104.1862793 C32.3067304 100.99993732 31.59117398 97.81239793 30.875 94.625 C29.26625 87.48875 27.6575 80.3525 26 73 C25.67 89.5 25.34 106 25 123 C16.75 123 8.5 123 0 123 C0 82.41 0 41.82 0 0 Z " fill="#0166CA" transform="translate(193,3)"/>
<path d="M0 0 C8.16518241 6.78538022 10.37689561 15.05492175 11.75 25.375 C11.9571096 29.74681358 11.89602173 33.99434817 11.75 38.375 C3.83 38.375 -4.09 38.375 -12.25 38.375 C-12.91 32.105 -13.57 25.835 -14.25 19.375 C-19.74351092 18.87136434 -19.74351092 18.87136434 -22.10272217 20.45507812 C-23.8292402 23.34433445 -23.61638655 25.74558438 -23.60644531 29.09375 C-23.60848969 29.77211914 -23.61053406 30.45048828 -23.61264038 31.14941406 C-23.61564822 33.39155037 -23.59717146 35.63295111 -23.578125 37.875 C-23.5750671 39.43294086 -23.57319121 40.99088444 -23.57244873 42.54882812 C-23.56784559 45.81390853 -23.55341992 49.07874231 -23.53125 52.34375 C-23.50296766 56.53035006 -23.4920384 60.71675586 -23.4875679 64.90344238 C-23.48341197 68.1204625 -23.47359302 71.33744331 -23.46169281 74.55444336 C-23.45599297 76.09822271 -23.45123332 77.64200583 -23.44742584 79.18579102 C-23.44055487 81.34267821 -23.42691846 83.49941191 -23.41113281 85.65625 C-23.40430481 86.88408203 -23.39747681 88.11191406 -23.39044189 89.37695312 C-23.38352206 92.42691629 -23.38352206 92.42691629 -22.25 95.375 C-18.27245872 96.10834429 -18.27245872 96.10834429 -14.25 96.375 C-13.12743029 90.77158479 -12.92278683 85.1931699 -12.6875 79.5 C-12.62272461 78.03820312 -12.62272461 78.03820312 -12.55664062 76.546875 C-12.45117726 74.15637198 -12.34905825 71.76577556 -12.25 69.375 C-14.56 69.375 -16.87 69.375 -19.25 69.375 C-19.25 62.115 -19.25 54.855 -19.25 47.375 C-9.02 47.375 1.21 47.375 11.75 47.375 C11.75 71.135 11.75 94.895 11.75 119.375 C8.12 119.375 4.49 119.375 0.75 119.375 C-0.57 116.405 -1.89 113.435 -3.25 110.375 C-3.86875 111.2825 -4.4875 112.19 -5.125 113.125 C-9.17114153 117.93477951 -14.66949969 119.830986 -20.76953125 120.7578125 C-27.81290506 121.09057032 -34.5253495 119.38829021 -40.0703125 114.90234375 C-47.45314176 107.05576894 -49.34339655 96.70757683 -49.42700195 86.29077148 C-49.43685875 85.26739433 -49.43685875 85.26739433 -49.44691467 84.2233429 C-49.46651011 81.98092506 -49.47828222 79.73857391 -49.48828125 77.49609375 C-49.49235678 76.72347765 -49.4964323 75.95086155 -49.50063133 75.15483284 C-49.52143827 71.06147664 -49.53576049 66.96815337 -49.54516602 62.87475586 C-49.55619137 58.68117491 -49.59056142 54.48813023 -49.63033772 50.29473782 C-49.65668995 47.04044215 -49.6648744 43.78627045 -49.66844749 40.53187752 C-49.67326922 38.98795024 -49.68475438 37.4440268 -49.70348549 35.90020561 C-49.83266825 24.54301811 -49.27450885 13.16803477 -42.0625 3.8125 C-31.87231741 -6.57491193 -11.93765615 -8.21132236 0 0 Z " fill="#0166CA" transform="translate(116.25,6.625)"/>
<path d="M0 0 C19.47 0 38.94 0 59 0 C59 41.91 59 83.82 59 127 C39.53 127 20.06 127 0 127 C0 85.09 0 43.18 0 0 Z M8 15 C7.40946859 17.47575713 7.40946859 17.47575713 7.5625 20.0625 C7.56378906 20.91972656 7.56507813 21.77695312 7.56640625 22.66015625 C8.0785108 25.4236754 8.81814363 26.2875895 11 28 C15.54849436 30.27424718 21.88116822 29.18502536 26.875 29.1875 C28.81439453 29.20586914 28.81439453 29.20586914 30.79296875 29.22460938 C32.03433594 29.22654297 33.27570312 29.22847656 34.5546875 29.23046875 C35.69405762 29.23457764 36.83342773 29.23868652 38.00732422 29.24291992 C40.93367392 29.00538379 42.56860373 28.59684359 45 27 C46.99849814 24.07673099 47.24007048 21.91744606 46.875 18.4375 C46.81054688 17.67308594 46.74609375 16.90867187 46.6796875 16.12109375 C45.74636631 13.20848796 44.63191159 12.5399999 42 11 C38.77748624 10.52228888 38.77748624 10.52228888 35.1875 10.56640625 C34.21139771 10.55854347 34.21139771 10.55854347 33.21557617 10.55052185 C31.84392724 10.54411718 30.47222326 10.54541858 29.10058594 10.55395508 C27.00616479 10.56247492 24.91446503 10.53367526 22.8203125 10.50195312 C21.48437581 10.50034108 20.14843432 10.50091872 18.8125 10.50390625 C17.60207031 10.50205322 16.39164063 10.5002002 15.14453125 10.49829102 C11.42113204 11.0923582 10.24646359 12.02817638 8 15 Z M9 35 C6.61020689 39.77958622 8 45.65626015 8 51 C20.87 50.67 33.74 50.34 47 50 C47 48.02 47 46.04 47 44 C42.05 43.67 37.1 43.34 32 43 C31.54427083 40.98177083 31.08854167 38.96354167 30.6328125 36.9453125 C30.09525572 34.79280036 30.09525572 34.79280036 28 33 C21.43703006 30.84003521 14.82480223 31.21387855 9 35 Z M8 54 C8 56.31 8 58.62 8 61 C18.23 61.33 28.46 61.66 39 62 C39 62.99 39 63.98 39 65 C23.655 65.495 23.655 65.495 8 66 C8 68.31 8 70.62 8 73 C12.32330779 73.0496011 16.64646285 73.0858144 20.9699707 73.10986328 C22.43940112 73.11989352 23.90881171 73.13352101 25.37817383 73.15087891 C27.49565537 73.17525898 29.61287199 73.18651286 31.73046875 73.1953125 C33.00301514 73.20578613 34.27556152 73.21625977 35.58666992 73.22705078 C39.79297415 72.94725227 42.70710764 72.20372737 45.8125 69.3125 C47.51833914 65.99060274 47.45252566 63.68485182 47 60 C44.83367774 56.41219435 44.83367774 56.41219435 41.30761719 54.37329102 C38.12818812 53.85897161 35.04856594 53.88914522 31.828125 53.90234375 C30.8044986 53.90446617 30.8044986 53.90446617 29.76019287 53.90663147 C27.59008316 53.91220916 25.4200783 53.92475746 23.25 53.9375 C21.77474108 53.94251789 20.29948053 53.94708029 18.82421875 53.95117188 C15.21611202 53.96217125 11.60806625 53.97942047 8 54 Z M8 79 C8 83.95 8 88.9 8 94 C20.87 94 33.74 94 47 94 C47 91.69 47 89.38 47 87 C41.06 87 35.12 87 29 87 C29.33 86.01 29.66 85.02 30 84 C38.415 83.505 38.415 83.505 47 83 C47 80.69 47 78.38 47 76 C44.06225537 75.94609643 41.12549768 75.9063745 38.1875 75.875 C37.35412109 75.85824219 36.52074219 75.84148437 35.66210938 75.82421875 C34.45844727 75.81455078 34.45844727 75.81455078 33.23046875 75.8046875 C32.49207764 75.79421387 31.75368652 75.78374023 30.99291992 75.77294922 C28.68109324 75.88258521 28.68109324 75.88258521 26 78 C25.34 77.34 24.68 76.68 24 76 C20.97695692 75.64129857 20.97695692 75.64129857 17.5625 75.6875 C16.40878906 75.67074219 15.25507813 75.65398437 14.06640625 75.63671875 C10.66171054 75.71928345 10.66171054 75.71928345 8 79 Z M8 102 C7.3144602 106.57557958 7.10022132 110.68246693 9.75 114.5625 C14.96111403 117.89182285 20.89902203 117.18360432 26.875 117.1875 C28.34646484 117.20586914 28.34646484 117.20586914 29.84765625 117.22460938 C38.50035209 117.30806994 38.50035209 117.30806994 45.9375 113.3125 C47.49427002 109.92423583 46.84261671 107.56491684 46 104 C45.34 103.01 44.68 102.02 44 101 C44.66 101 45.32 101 46 101 C46 100.01 46 99.02 46 98 C38.74 98 31.48 98 24 98 C24 100.97 24 103.94 24 107 C25.98 107 27.96 107 30 107 C30 106.34 30 105.68 30 105 C32.97 105.33 35.94 105.66 39 106 C39.33 106.99 39.66 107.98 40 109 C31.42 109 22.84 109 14 109 C14.33 108.01 14.66 107.02 15 106 C16.65 105.67 18.3 105.34 20 105 C20 102.69 20 100.38 20 98 C15.10745023 97.72042573 11.52659701 98.47340299 8 102 Z " fill="#0366C8" transform="translate(0,0)"/>
<path d="M0 0 C8.25 0 16.5 0 25 0 C25 33.33 25 66.66 25 101 C33.25 101 41.5 101 50 101 C50 108.26 50 115.52 50 123 C33.5 123 17 123 0 123 C0 82.41 0 41.82 0 0 Z " fill="#0166CA" transform="translate(137,3)"/>
<path d="M0 0 C8.25 0 16.5 0 25 0 C24.67 1.32 24.34 2.64 24 4 C16.08 4 8.16 4 0 4 C0 2.68 0 1.36 0 0 Z " fill="#0467CA" transform="translate(15,18)"/>
<path d="M0 0 C1.134375 0.020625 2.26875 0.04125 3.4375 0.0625 C4.0975 1.3825 4.7575 2.7025 5.4375 4.0625 C4.4375 5.0625 4.4375 5.0625 2.37109375 5.16015625 C1.54738281 5.14855469 0.72367188 5.13695312 -0.125 5.125 C-0.95128906 5.11597656 -1.77757812 5.10695313 -2.62890625 5.09765625 C-3.26699219 5.08605469 -3.90507812 5.07445312 -4.5625 5.0625 C-4.5625 0.08004386 -4.5625 0.08004386 0 0 Z " fill="#0965C2" transform="translate(19.5625,38.9375)"/>
<path d="M0 0 C2.97 0 5.94 0 9 0 C9 0.99 9 1.98 9 3 C1.41 3 -6.18 3 -14 3 C-14 2.67 -14 2.34 -14 2 C-9.38 2 -4.76 2 0 2 C0 1.34 0 0.68 0 0 Z " fill="#0169D1" transform="translate(31,106)"/>
<path d="M0 0 C2.31 0 4.62 0 7 0 C7.33 0.99 7.66 1.98 8 3 C7 4 7 4 5.15234375 4.09765625 C3.1015625 4.06510417 1.05078125 4.03255208 -1 4 C-0.67 2.68 -0.34 1.36 0 0 Z " fill="#0866C4" transform="translate(15,83)"/>
<path d="M0 0 C2.64 0.33 5.28 0.66 8 1 C8 3.64 8 6.28 8 9 C7.67 9 7.34 9 7 9 C7 6.69 7 4.38 7 2 C4.36 2.33 1.72 2.66 -1 3 C-0.67 2.01 -0.34 1.02 0 0 Z " fill="#1063B8" transform="translate(13,96)"/>
</svg>
