<svg xmlns="http://www.w3.org/2000/svg" xmlns:xlink="http://www.w3.org/1999/xlink" width="2240" zoomAndPan="magnify" viewBox="0 0 1680 1679.999928" height="2240" preserveAspectRatio="xMidYMid meet" version="1.0"><defs><g/></defs><rect x="-168" width="2016" fill="#ffffff" y="-167.999993" height="2015.999914" fill-opacity="1"/><rect x="-168" width="2016" fill="#2563eb" y="-167.999993" height="2015.999914" fill-opacity="1"/><path fill="#f9fafb" d="M 486.769531 642.210938 C 500.75 641.761719 515.035156 644.144531 528.398438 648.171875 C 543.996094 652.878906 557.570312 661.574219 568.976562 673.140625 C 584.992188 689.371094 592.488281 708.523438 594.679688 730.910156 C 595.078125 734.976562 595.574219 739.097656 595.5 743.191406 C 595.316406 753.304688 593.6875 763.648438 592.132812 773.617188 L 586.242188 810 L 571.523438 901.621094 C 569.535156 913.960938 564.472656 935.789062 570.664062 946.804688 C 573.757812 952.308594 579.433594 956.519531 585.496094 958.167969 C 594.253906 960.554688 604.785156 959.511719 612.648438 954.898438 C 613.550781 954.375 614.425781 953.808594 615.277344 953.203125 C 616.128906 952.601562 616.953125 951.960938 617.75 951.285156 C 618.546875 950.609375 619.3125 949.902344 620.046875 949.160156 C 620.78125 948.417969 621.480469 947.644531 622.148438 946.84375 C 622.816406 946.039062 623.445312 945.207031 624.042969 944.351562 C 624.636719 943.492188 625.191406 942.609375 625.710938 941.703125 C 626.230469 940.796875 626.707031 939.871094 627.144531 938.921875 C 627.582031 937.976562 627.976562 937.011719 628.332031 936.027344 C 631.308594 927.632812 632.132812 917.972656 633.511719 909.1875 L 639.425781 872.019531 L 663.148438 722.484375 L 670.5 676.417969 C 671.953125 667.230469 672.914062 657.839844 675.273438 648.832031 C 681.8125 647.5625 758.046875 647.769531 763.097656 649.128906 C 763.644531 649.835938 763.632812 650.097656 763.636719 650.976562 C 763.640625 652.769531 763.128906 654.597656 762.941406 656.382812 C 762.121094 664.183594 760.769531 671.917969 759.550781 679.660156 L 750.128906 739.707031 L 729.136719 874.859375 C 725.09375 900.097656 722.6875 926.207031 714.925781 950.625 C 709.210938 968.605469 699.53125 985.632812 686.332031 999.191406 C 659.328125 1026.933594 625.179688 1038.15625 587.066406 1038.648438 C 574.824219 1038.800781 563.363281 1037.550781 551.429688 1034.78125 C 533.054688 1030.511719 515.285156 1020.84375 502.4375 1006.929688 C 480.855469 983.554688 475.664062 954.925781 478.628906 924.265625 C 479.265625 917.664062 480.492188 911.027344 481.5 904.472656 L 487.429688 867.683594 L 501.273438 780.78125 C 503.480469 766.964844 509.386719 745.574219 501.398438 733.035156 C 497.6875 727.210938 491.355469 724.082031 484.785156 722.671875 C 475.679688 720.71875 465.554688 722.324219 457.761719 727.492188 C 451.089844 731.914062 446.742188 737.847656 444.214844 745.398438 C 441.363281 753.921875 440.765625 763.898438 439.394531 772.785156 C 436.867188 788.234375 434.441406 803.703125 432.113281 819.183594 L 409.359375 963.34375 L 403.152344 1003.023438 C 401.761719 1012.445312 400.679688 1022.183594 398.691406 1031.492188 L 398.589844 1031.945312 C 393.785156 1032.992188 388.445312 1032.539062 383.535156 1032.542969 L 361.488281 1032.546875 L 328.980469 1032.53125 C 322.332031 1032.527344 315.578125 1032.765625 308.945312 1032.277344 C 309.230469 1025.71875 310.613281 1019.0625 311.625 1012.582031 L 316.550781 981.246094 L 331.371094 886.429688 L 346.496094 789.328125 C 349.257812 772.300781 351.082031 754.761719 355.988281 738.171875 C 362.027344 717.738281 371.382812 697.328125 386.21875 681.734375 C 392.019531 675.636719 398.128906 669.910156 405.042969 665.082031 C 424.019531 651.835938 449.089844 644.925781 471.921875 642.746094 C 476.8125 642.28125 481.855469 642.328125 486.769531 642.210938 Z M 486.769531 642.210938 " fill-opacity="1" fill-rule="nonzero"/><path fill="#f9fafb" d="M 718.414062 545.628906 C 719.152344 545.550781 719.894531 545.488281 720.636719 545.445312 C 721.378906 545.398438 722.121094 545.375 722.863281 545.367188 C 723.609375 545.359375 724.351562 545.371094 725.09375 545.402344 C 725.835938 545.429688 726.578125 545.480469 727.320312 545.542969 C 728.058594 545.609375 728.796875 545.695312 729.535156 545.796875 C 730.269531 545.902344 731.003906 546.019531 731.734375 546.160156 C 732.464844 546.296875 733.191406 546.457031 733.914062 546.628906 C 734.636719 546.804688 735.355469 546.996094 736.066406 547.207031 C 736.78125 547.417969 737.488281 547.644531 738.191406 547.890625 C 738.894531 548.132812 739.589844 548.394531 740.277344 548.675781 C 740.96875 548.953125 741.648438 549.25 742.324219 549.5625 C 742.996094 549.875 743.664062 550.207031 744.324219 550.550781 C 744.980469 550.894531 745.628906 551.257812 746.269531 551.636719 C 746.910156 552.011719 747.542969 552.40625 748.164062 552.816406 C 748.785156 553.222656 749.394531 553.648438 749.996094 554.085938 C 750.59375 554.527344 751.183594 554.980469 751.761719 555.449219 C 752.339844 555.914062 752.90625 556.398438 753.457031 556.894531 C 754.011719 557.390625 754.554688 557.898438 755.085938 558.421875 C 755.613281 558.941406 756.128906 559.476562 756.628906 560.027344 C 757.132812 560.574219 757.621094 561.132812 758.097656 561.707031 C 758.570312 562.277344 759.03125 562.863281 759.476562 563.457031 C 759.925781 564.050781 760.355469 564.65625 760.773438 565.273438 C 761.1875 565.890625 761.589844 566.515625 761.972656 567.152344 C 762.359375 567.785156 762.730469 568.429688 763.082031 569.085938 C 763.4375 569.738281 763.773438 570.402344 764.09375 571.074219 C 764.414062 571.742188 764.71875 572.421875 765.007812 573.105469 C 765.292969 573.792969 765.566406 574.484375 765.820312 575.183594 C 766.074219 575.882812 766.308594 576.585938 766.527344 577.296875 C 766.746094 578.007812 766.945312 578.726562 767.128906 579.445312 C 767.3125 580.164062 767.480469 580.890625 767.625 581.617188 C 767.773438 582.347656 767.902344 583.078125 768.015625 583.816406 C 768.125 584.550781 768.21875 585.289062 768.292969 586.027344 C 768.371094 586.765625 768.425781 587.507812 768.464844 588.25 C 768.503906 588.992188 768.523438 589.734375 768.527344 590.480469 C 768.527344 591.222656 768.511719 591.964844 768.476562 592.707031 C 768.441406 593.453125 768.390625 594.191406 768.316406 594.933594 C 768.246094 595.671875 768.15625 596.410156 768.050781 597.144531 C 767.941406 597.882812 767.816406 598.613281 767.671875 599.34375 C 767.527344 600.074219 767.367188 600.800781 767.1875 601.519531 C 767.007812 602.242188 766.8125 602.957031 766.597656 603.671875 C 766.382812 604.382812 766.148438 605.089844 765.898438 605.789062 C 765.648438 606.488281 765.382812 607.183594 765.097656 607.871094 C 764.816406 608.558594 764.515625 609.238281 764.195312 609.910156 C 763.878906 610.582031 763.546875 611.246094 763.195312 611.902344 C 762.84375 612.558594 762.480469 613.203125 762.097656 613.84375 C 761.714844 614.480469 761.316406 615.109375 760.902344 615.726562 C 760.492188 616.34375 760.0625 616.953125 759.621094 617.550781 C 759.175781 618.148438 758.71875 618.734375 758.25 619.308594 C 757.777344 619.882812 757.289062 620.445312 756.789062 620.992188 C 756.289062 621.542969 755.777344 622.082031 755.253906 622.609375 C 754.726562 623.132812 754.1875 623.644531 753.636719 624.144531 C 753.085938 624.644531 752.519531 625.128906 751.945312 625.597656 C 751.371094 626.070312 750.785156 626.527344 750.1875 626.96875 C 749.589844 627.410156 748.980469 627.835938 748.359375 628.25 C 747.742188 628.660156 747.113281 629.058594 746.472656 629.4375 C 745.835938 629.820312 745.1875 630.183594 744.53125 630.535156 C 743.875 630.882812 743.210938 631.214844 742.539062 631.53125 C 741.863281 631.847656 741.183594 632.148438 740.496094 632.429688 C 739.808594 632.714844 739.117188 632.980469 738.414062 633.226562 C 737.714844 633.476562 737.007812 633.707031 736.296875 633.921875 C 735.582031 634.136719 734.867188 634.332031 734.144531 634.507812 C 733.421875 634.6875 732.699219 634.847656 731.96875 634.992188 C 731.238281 635.132812 730.503906 635.257812 729.769531 635.363281 C 729.035156 635.472656 728.296875 635.558594 727.554688 635.628906 C 726.820312 635.699219 726.085938 635.75 725.351562 635.785156 C 724.613281 635.816406 723.875 635.832031 723.140625 635.832031 C 722.402344 635.828125 721.667969 635.804688 720.929688 635.769531 C 720.195312 635.730469 719.460938 635.675781 718.726562 635.601562 C 717.996094 635.523438 717.261719 635.433594 716.535156 635.320312 C 715.804688 635.210938 715.078125 635.085938 714.355469 634.9375 C 713.636719 634.792969 712.917969 634.628906 712.203125 634.449219 C 711.488281 634.269531 710.777344 634.070312 710.074219 633.855469 C 709.367188 633.640625 708.667969 633.40625 707.976562 633.15625 C 707.28125 632.90625 706.59375 632.640625 705.914062 632.359375 C 705.234375 632.074219 704.5625 631.773438 703.894531 631.460938 C 703.230469 631.144531 702.570312 630.8125 701.921875 630.460938 C 701.273438 630.113281 700.632812 629.75 700 629.371094 C 699.367188 628.992188 698.746094 628.597656 698.132812 628.1875 C 697.523438 627.777344 696.921875 627.351562 696.328125 626.914062 C 695.738281 626.472656 695.15625 626.019531 694.585938 625.550781 C 694.015625 625.082031 693.457031 624.601562 692.910156 624.105469 C 692.367188 623.613281 691.832031 623.105469 691.3125 622.582031 C 690.789062 622.0625 690.28125 621.527344 689.789062 620.984375 C 689.292969 620.4375 688.8125 619.878906 688.34375 619.308594 C 687.875 618.738281 687.421875 618.160156 686.980469 617.570312 C 686.542969 616.976562 686.117188 616.375 685.707031 615.761719 C 685.296875 615.148438 684.902344 614.527344 684.523438 613.894531 C 684.144531 613.261719 683.78125 612.621094 683.429688 611.972656 C 683.082031 611.324219 682.75 610.667969 682.433594 610 C 682.117188 609.335938 681.820312 608.660156 681.535156 607.980469 C 681.253906 607.300781 680.988281 606.613281 680.738281 605.921875 C 680.488281 605.226562 680.253906 604.527344 680.039062 603.824219 C 679.824219 603.117188 679.625 602.410156 679.445312 601.695312 C 679.265625 600.980469 679.101562 600.261719 678.953125 599.539062 C 678.808594 598.816406 678.679688 598.089844 678.570312 597.363281 C 678.460938 596.632812 678.367188 595.902344 678.292969 595.167969 C 678.21875 594.4375 678.164062 593.703125 678.125 592.964844 C 678.085938 592.230469 678.066406 591.492188 678.0625 590.757812 C 678.058594 590.019531 678.074219 589.28125 678.109375 588.546875 C 678.140625 587.808594 678.195312 587.074219 678.261719 586.339844 C 678.332031 585.605469 678.417969 584.875 678.523438 584.144531 C 678.628906 583.417969 678.753906 582.691406 678.894531 581.96875 C 679.035156 581.242188 679.191406 580.523438 679.367188 579.808594 C 679.542969 579.09375 679.738281 578.382812 679.945312 577.675781 C 680.160156 576.96875 680.386719 576.269531 680.628906 575.574219 C 680.875 574.878906 681.136719 574.1875 681.417969 573.507812 C 681.695312 572.824219 681.988281 572.148438 682.300781 571.480469 C 682.613281 570.8125 682.941406 570.152344 683.28125 569.5 C 683.628906 568.847656 683.988281 568.207031 684.363281 567.570312 C 684.738281 566.9375 685.128906 566.3125 685.53125 565.695312 C 685.9375 565.082031 686.359375 564.476562 686.796875 563.882812 C 687.230469 563.289062 687.679688 562.703125 688.144531 562.132812 C 688.609375 561.558594 689.085938 560.996094 689.574219 560.449219 C 690.066406 559.898438 690.574219 559.359375 691.089844 558.835938 C 691.609375 558.3125 692.136719 557.800781 692.679688 557.300781 C 693.222656 556.800781 693.777344 556.316406 694.34375 555.84375 C 694.910156 555.375 695.484375 554.914062 696.074219 554.472656 C 696.664062 554.027344 697.261719 553.601562 697.871094 553.1875 C 698.480469 552.769531 699.101562 552.371094 699.730469 551.988281 C 700.359375 551.605469 700.996094 551.234375 701.644531 550.882812 C 702.292969 550.53125 702.945312 550.195312 703.609375 549.871094 C 704.273438 549.550781 704.945312 549.246094 705.625 548.960938 C 706.300781 548.671875 706.988281 548.402344 707.679688 548.144531 C 708.371094 547.890625 709.066406 547.65625 709.769531 547.433594 C 710.472656 547.214844 711.183594 547.011719 711.894531 546.824219 C 712.609375 546.640625 713.328125 546.472656 714.050781 546.320312 C 714.769531 546.167969 715.492188 546.035156 716.222656 545.921875 C 716.949219 545.804688 717.679688 545.710938 718.414062 545.628906 Z M 718.414062 545.628906 " fill-opacity="1" fill-rule="nonzero"/><g fill="#f9fafb" fill-opacity="1"><g transform="translate(859.988133, 947.800442)"><g><path d="M 40.609375 -149.1875 L 40.609375 0 L 11.46875 0 L 11.46875 -205.96875 L 52.078125 -205.96875 L 85.328125 -82.6875 L 85.328125 -205.96875 L 114.171875 -205.96875 L 114.171875 0 L 80.921875 0 Z M 40.609375 -149.1875 "/></g></g></g><g fill="#f9fafb" fill-opacity="1"><g transform="translate(985.632969, 947.800442)"><g><path d="M 42.671875 -205.96875 L 42.671875 -47.078125 C 42.671875 -39.628906 44.1875 -34.429688 47.21875 -31.484375 C 50.257812 -28.546875 54.332031 -27.078125 59.4375 -27.078125 C 64.539062 -27.078125 68.609375 -28.546875 71.640625 -31.484375 C 74.679688 -34.429688 76.203125 -39.628906 76.203125 -47.078125 L 76.203125 -205.96875 L 106.8125 -205.96875 L 106.8125 -49.140625 C 106.8125 -32.460938 102.738281 -19.660156 94.59375 -10.734375 C 86.457031 -1.816406 74.445312 2.640625 58.5625 2.640625 C 42.664062 2.640625 30.644531 -1.816406 22.5 -10.734375 C 14.363281 -19.660156 10.296875 -32.460938 10.296875 -49.140625 L 10.296875 -205.96875 Z M 42.671875 -205.96875 "/></g></g></g><g fill="#f9fafb" fill-opacity="1"><g transform="translate(1102.744518, 947.800442)"><g><path d="M 42.671875 -205.96875 L 42.671875 -47.078125 C 42.671875 -39.628906 44.1875 -34.429688 47.21875 -31.484375 C 50.257812 -28.546875 54.332031 -27.078125 59.4375 -27.078125 C 64.539062 -27.078125 68.609375 -28.546875 71.640625 -31.484375 C 74.679688 -34.429688 76.203125 -39.628906 76.203125 -47.078125 L 76.203125 -205.96875 L 106.8125 -205.96875 L 106.8125 -49.140625 C 106.8125 -32.460938 102.738281 -19.660156 94.59375 -10.734375 C 86.457031 -1.816406 74.445312 2.640625 58.5625 2.640625 C 42.664062 2.640625 30.644531 -1.816406 22.5 -10.734375 C 14.363281 -19.660156 10.296875 -32.460938 10.296875 -49.140625 L 10.296875 -205.96875 Z M 42.671875 -205.96875 "/></g></g></g><g fill="#f9fafb" fill-opacity="1"><g transform="translate(1219.856079, 947.800442)"><g><path d="M 60.609375 -37.953125 L 85.328125 -205.96875 L 115.046875 -205.96875 L 83.265625 0 L 35.015625 0 L 3.234375 -205.96875 L 35.90625 -205.96875 Z M 60.609375 -37.953125 "/></g></g></g><g fill="#f9fafb" fill-opacity="1"><g transform="translate(1338.144606, 947.800442)"><g><path d="M 11.765625 -205.96875 L 44.140625 -205.96875 L 44.140625 0 L 11.765625 0 Z M 11.765625 -205.96875 "/></g></g></g><g fill="#f9fafb" fill-opacity="1"><g transform="translate(1394.052095, 947.800442)"><g><path d="M 54.140625 -82.09375 L 44.140625 -63.265625 L 44.140625 0 L 11.765625 0 L 11.765625 -205.96875 L 44.140625 -205.96875 L 44.140625 -116.234375 L 86.515625 -205.96875 L 118.875 -205.96875 L 73.859375 -114.171875 L 118.875 0 L 85.625 0 Z M 54.140625 -82.09375 "/></g></g></g></svg>